<svg width="200" height="200" viewBox="0 0 200 200" fill="none" xmlns="http://www.w3.org/2000/svg">
<g clip-path="url(#clip0_54_65)">
<path d="M100 199.892C155.227 199.892 200 162.581 200 116.558C200 70.5354 155.227 33.225 100 33.225C44.7725 33.225 0 70.5354 0 116.558C0 162.581 44.7725 199.892 100 199.892Z" fill="#6A00FF"/>
<path opacity="0.8" d="M100 199.892C155.227 199.892 200 162.581 200 116.558C200 70.5354 155.227 33.225 100 33.225C44.7725 33.225 0 70.5354 0 116.558C0 162.581 44.7725 199.892 100 199.892Z" fill="white"/>
<path d="M126.633 1.5386L47.87 10.0863C43.5058 10.56 40.4288 13.8921 40.997 17.5288L62.2005 153.206C62.7688 156.843 66.7675 159.407 71.1315 158.933L149.894 150.386C154.258 149.912 157.335 146.58 156.767 142.943L135.564 7.26589C134.995 3.62901 130.997 1.06505 126.633 1.5386Z" fill="#6A00FF"/>
<path d="M154.077 125.706L138.252 24.5L101.639 28.4719C108.165 44.8402 111.187 62.0365 110.567 79.2761C109.91 97.4236 105.12 115.301 96.454 131.959L154.077 125.706Z" fill="url(#paint0_linear_54_65)" style="mix-blend-mode:soft-light"/>
<path d="M108.658 149.158C112.904 149.158 116.347 146.29 116.347 142.751C116.347 139.212 112.904 136.343 108.658 136.343C104.411 136.343 100.968 139.212 100.968 142.751C100.968 146.29 104.411 149.158 108.658 149.158Z" fill="white"/>
<g style="mix-blend-mode:soft-light">
<path d="M99.18 15.4454L78.6995 17.6642C78.576 17.6765 78.4518 17.6475 78.354 17.5835C78.2563 17.5195 78.193 17.4257 78.1782 17.3229C78.1635 17.22 78.1982 17.1164 78.275 17.0349C78.352 16.9535 78.4645 16.9008 78.5878 16.8884L99.0683 14.662C99.1917 14.6486 99.3165 14.6766 99.415 14.7399C99.5137 14.8032 99.5782 14.8965 99.5942 14.9994C99.6102 15.1023 99.5765 15.2063 99.5008 15.2885C99.4248 15.3707 99.3128 15.4244 99.1893 15.4377L99.18 15.4454Z" fill="black"/>
</g>
</g>
<defs>
<linearGradient id="paint0_linear_54_65" x1="115.742" y1="16.439" x2="126.857" y2="118.005" gradientUnits="userSpaceOnUse">
<stop stop-color="white" stop-opacity="0"/>
<stop offset="1" stop-opacity="0.8"/>
</linearGradient>
<clipPath id="clip0_54_65">
<rect width="200" height="200" fill="white"/>
</clipPath>
</defs>
</svg>
