<svg width="200" height="200" viewBox="0 0 200 200" fill="none" xmlns="http://www.w3.org/2000/svg">
<g clip-path="url(#clip0_54_107)">
<path d="M100 198.701C155.227 198.701 200 154.482 200 99.9358C200 45.3902 155.227 1.17041 100 1.17041C44.7725 1.17041 0 45.3902 0 99.9358C0 154.482 44.7725 198.701 100 198.701Z" fill="#6A00FF"/>
<path opacity="0.8" d="M100 198.701C155.227 198.701 200 154.482 200 99.9358C200 45.3902 155.227 1.17041 100 1.17041C44.7725 1.17041 0 45.3902 0 99.9358C0 154.482 44.7725 198.701 100 198.701Z" fill="white"/>
<path d="M130 12.3459C149.444 12.3459 165.972 18.3474 179.582 30.3501C193.194 42.3529 199.999 56.8761 199.999 73.9205C199.999 84.483 196.171 93.485 188.515 100.928C180.859 108.37 171.683 112.091 160.99 112.091H147.5C144.097 112.091 141.302 113.231 139.115 115.511C136.927 117.792 135.833 120.492 135.833 123.613C135.833 126.494 136.806 129.014 138.75 131.175C140.695 133.575 141.667 136.216 141.667 139.097C141.667 142.217 140.512 144.918 138.203 147.199C135.894 149.479 133.16 150.619 130 150.619C110.556 150.619 94.0277 143.898 80.4177 130.455C66.8065 117.012 60.001 100.687 60.001 81.4845C60.001 62.282 66.8065 45.9561 80.4177 32.5141C94.0287 19.0709 110.558 12.3494 130 12.3494L130 12.3459ZM87.1625 81.4818C90.4437 81.4818 93.2387 80.3415 95.5477 78.061C97.857 75.7805 99.0115 73.0798 99.0115 69.9593C99.0115 66.8385 97.857 64.1378 95.5477 61.8573C93.2387 59.5768 90.4437 58.4366 87.1625 58.4366C83.8812 58.4366 81.1467 59.5768 78.9592 61.8573C76.7717 64.1378 75.678 66.8385 75.678 69.9593C75.678 73.0798 76.7717 75.7805 78.9592 78.061C81.1467 80.3415 83.8812 81.4818 87.1625 81.4818ZM110.496 50.8743C113.777 50.8743 116.572 49.7341 118.881 47.4536C121.19 45.1731 122.345 42.4124 122.345 39.1716C122.345 35.9309 121.19 33.2304 118.881 31.0699C116.572 28.9094 113.777 27.8292 110.496 27.8292C107.214 27.8292 104.48 28.9094 102.293 31.0699C100.105 33.2304 99.0115 35.9309 99.0115 39.1716C99.0115 42.4124 100.105 45.1731 102.293 47.4536C104.48 49.7341 107.214 50.8743 110.496 50.8743ZM149.506 50.8743C152.787 50.8743 155.521 49.7341 157.709 47.4536C159.896 45.1731 160.99 42.4124 160.99 39.1716C160.99 35.9309 159.896 33.2304 157.709 31.0699C155.521 28.9094 152.787 27.8292 149.506 27.8292C146.224 27.8292 143.429 28.9094 141.12 31.0699C138.811 33.2304 137.657 35.9309 137.657 39.1716C137.657 42.4124 138.811 45.1731 141.12 47.4536C143.429 49.7341 146.224 50.8743 149.506 50.8743ZM172.839 81.4818C176.12 81.4818 178.855 80.3415 181.042 78.061C183.23 75.7805 184.323 73.0798 184.323 69.9593C184.323 66.8385 183.23 64.1378 181.042 61.8573C178.855 59.5768 176.12 58.4366 172.839 58.4366C169.558 58.4366 166.763 59.5768 164.453 61.8573C162.144 64.1378 160.99 66.8385 160.99 69.9593C160.99 73.0798 162.144 75.7805 164.453 78.061C166.763 80.3415 169.558 81.4818 172.839 81.4818Z" fill="#6A00FF"/>
<path fill-rule="evenodd" clip-rule="evenodd" d="M130 12.3457C149.444 12.3457 165.972 18.3472 179.582 30.3499C193.194 42.3526 199.999 56.8758 199.999 73.9203C199.999 84.4827 196.171 93.4847 188.515 100.928C180.858 108.371 171.683 112.09 160.99 112.09H147.5C144.097 112.09 141.302 113.23 139.115 115.511C139.115 115.511 145 101.236 135.44 73.9208C125.88 46.6072 130 12.3457 130 12.3457ZM157.707 47.4543C155.52 49.7351 152.786 50.8753 149.504 50.8753C146.223 50.8753 143.428 49.7351 141.119 47.4543C138.81 45.1739 137.655 42.4134 137.655 39.1726C137.655 35.9319 138.81 33.2311 141.119 31.0706C143.428 28.9102 146.223 27.8299 149.504 27.8299C152.786 27.8299 155.52 28.9102 157.707 31.0706C159.895 33.2311 160.989 35.9319 160.989 39.1726C160.989 42.4134 159.895 45.1739 157.707 47.4543ZM181.041 78.0618C178.853 80.3422 176.119 81.4825 172.838 81.4825C169.556 81.4825 166.761 80.3422 164.452 78.0618C162.143 75.7813 160.989 73.0805 160.989 69.9598C160.989 66.839 162.143 64.1385 164.452 61.8581C166.761 59.5776 169.556 58.4373 172.838 58.4373C176.119 58.4373 178.853 59.5776 181.041 61.8581C183.228 64.1385 184.322 66.839 184.322 69.9598C184.322 73.0805 183.228 75.7813 181.041 78.0618Z" fill="url(#paint0_linear_54_107)" style="mix-blend-mode:soft-light"/>
</g>
<defs>
<linearGradient id="paint0_linear_54_107" x1="154.927" y1="111.785" x2="165.021" y2="15.7638" gradientUnits="userSpaceOnUse">
<stop stop-opacity="0.8"/>
<stop offset="1" stop-color="white" stop-opacity="0"/>
</linearGradient>
<clipPath id="clip0_54_107">
<rect width="200" height="200" fill="white"/>
</clipPath>
</defs>
</svg>
