<svg width="200" height="200" viewBox="0 0 200 200" fill="none" xmlns="http://www.w3.org/2000/svg">
<g clip-path="url(#clip0_54_92)">
<path d="M102.205 198.186C150.465 198.186 189.588 161.365 189.588 115.944C189.588 70.5224 150.465 33.7012 102.205 33.7012C53.945 33.7012 14.8225 70.5224 14.8225 115.944C14.8225 161.365 53.945 198.186 102.205 198.186Z" fill="#6A00FF"/>
<path opacity="0.8" d="M102.205 198.186C150.465 198.186 189.588 161.365 189.588 115.944C189.588 70.5224 150.465 33.7012 102.205 33.7012C53.945 33.7012 14.8225 70.5224 14.8225 115.944C14.8225 161.365 53.945 198.186 102.205 198.186Z" fill="white"/>
<path d="M135.82 11.7335L143.782 59.5218C144.024 60.9808 143.959 62.4705 143.589 63.9055C143.219 65.3408 142.553 66.6933 141.628 67.8862C140.702 69.0789 139.537 70.0884 138.197 70.8571C136.857 71.6258 135.37 72.1385 133.819 72.3662L44.2092 85.5935L28.6505 102.028L27.2842 88.0888L21.762 88.9001C18.636 89.3561 15.4455 88.6265 12.8902 86.8717C10.335 85.1166 8.62349 82.4794 8.13099 79.5387L0.144242 31.7505C-0.344733 28.8039 0.429067 25.7952 2.29567 23.3855C4.16224 20.9757 6.96892 19.3618 10.0992 18.8985L122.189 2.36437C125.316 1.9087 128.508 2.63929 131.063 4.39583C133.619 6.15234 135.329 8.79119 135.82 11.7335Z" fill="#6A00FF"/>
<path d="M118.397 28.6659L22.2575 42.8499C21.6512 42.908 21.0444 42.7452 20.5617 42.395C20.079 42.0449 19.7572 41.5341 19.6624 40.9675C19.5677 40.4009 19.7071 39.8216 20.0521 39.3489C20.3972 38.8762 20.9215 38.5456 21.5174 38.4256L117.667 24.2416C117.976 24.1962 118.291 24.2087 118.595 24.2781C118.898 24.3475 119.184 24.4724 119.437 24.6459C119.689 24.8193 119.902 25.0379 120.065 25.2889C120.227 25.54 120.336 25.8188 120.384 26.1094C120.432 26.3997 120.419 26.6964 120.345 26.9821C120.271 27.2677 120.138 27.5369 119.954 27.7743C119.77 28.0117 119.538 28.2127 119.271 28.3656C119.004 28.5186 118.706 28.6207 118.397 28.6659Z" fill="white"/>
<path d="M120.415 40.753L24.265 54.9373C23.9564 54.9825 23.6412 54.97 23.3377 54.9006C23.0341 54.8312 22.748 54.7062 22.4958 54.5328C22.2436 54.3594 22.0301 54.1408 21.8676 53.8897C21.705 53.6387 21.5966 53.3599 21.5486 53.0695C21.5005 52.7789 21.5137 52.4825 21.5874 52.1966C21.6612 51.9109 21.7939 51.6417 21.9782 51.4043C22.1625 51.1669 22.3947 50.966 22.6615 50.813C22.9282 50.6601 23.2244 50.558 23.533 50.5128L119.673 36.3363C119.981 36.2907 120.296 36.3024 120.599 36.3712C120.903 36.4399 121.188 36.5643 121.441 36.737C121.693 36.9097 121.907 37.1274 122.069 37.378C122.232 37.6283 122.341 37.9064 122.39 38.1966C122.438 38.4864 122.426 38.7827 122.353 39.0681C122.28 39.3535 122.148 39.6227 121.964 39.8601C121.781 40.0975 121.549 40.2984 121.283 40.4519C121.017 40.605 120.723 40.7074 120.415 40.753Z" fill="white"/>
<path d="M102.23 55.8094L26.2825 67.0236C25.6603 67.116 25.0245 66.9718 24.515 66.6231C24.0056 66.2741 23.6643 65.7492 23.5661 65.1636C23.468 64.5779 23.6211 63.9793 23.9917 63.5C24.3623 63.0205 24.9202 62.6993 25.5425 62.6069L101.488 51.4005C102.078 51.3683 102.66 51.5438 103.121 51.893C103.581 52.2419 103.887 52.7398 103.979 53.2894C104.072 53.8393 103.944 54.4017 103.62 54.8673C103.296 55.333 102.802 55.669 102.23 55.8094Z" fill="white"/>
<path d="M135.817 11.7336L143.771 59.5219C144.015 60.9805 143.95 62.4699 143.581 63.9052C143.212 65.3402 142.547 66.6929 141.622 67.8859C140.698 69.0786 139.533 70.0882 138.193 70.8572C136.854 71.6259 135.367 72.1388 133.817 72.3663L87.1092 79.2555C87.9667 66.8094 86.6227 54.3144 83.132 42.2838C79.8375 30.9656 74.6957 20.1974 67.8907 10.3638L122.178 2.3647C125.306 1.90889 128.499 2.63927 131.056 4.39564C133.612 6.15202 135.325 8.79058 135.817 11.7336Z" fill="url(#paint0_linear_54_92)" style="mix-blend-mode:soft-light"/>
<path d="M93.5925 69.2659L82.1412 116.419C81.4347 119.322 81.9797 122.369 83.6567 124.895C85.3335 127.42 88.0057 129.217 91.0875 129.891L151.727 142.95L166.033 160.364L168.433 146.548L173.882 147.719C176.966 148.388 180.207 147.877 182.891 146.298C185.575 144.719 187.483 142.201 188.196 139.299L199.664 92.1457C200.369 89.2365 199.819 86.1829 198.134 83.6556C196.449 81.128 193.767 79.3335 190.677 78.6657L107.914 60.8151C104.824 60.1511 101.581 60.6678 98.896 62.2523C96.2107 63.8367 94.3037 66.3591 93.5925 69.2659Z" fill="#6A00FF"/>
<path d="M199.687 92.1223L188.22 139.245C187.507 142.147 185.599 144.665 182.915 146.244C180.231 147.823 176.99 148.334 173.906 147.665L168.457 146.494L166.057 160.31L151.751 142.896L129.735 138.15C135.163 129.309 139.496 119.912 142.65 110.141C146.892 96.9922 148.976 83.3125 148.831 69.5713L190.701 78.5885C192.237 78.9188 193.689 79.5313 194.973 80.3908C196.257 81.2506 197.347 82.3405 198.182 83.5979C199.017 84.8553 199.58 86.2558 199.839 87.7186C200.097 89.1814 200.045 90.6781 199.687 92.1223Z" fill="url(#paint1_linear_54_92)" style="mix-blend-mode:soft-light"/>
<path d="M134.758 94.0427L126.219 81.2324C125.409 80.0177 123.706 79.6508 122.416 80.4129L122.415 80.413C121.125 81.1751 120.735 82.7776 121.545 83.9923L130.084 96.8027C130.894 98.0174 132.597 98.3843 133.887 97.6222L133.887 97.622C135.178 96.8599 135.568 95.2574 134.758 94.0427Z" fill="white"/>
<path d="M117.456 102.812L132.842 98.357C134.291 97.9376 135.104 96.4925 134.658 95.1292C134.213 93.766 132.677 93.0008 131.229 93.4202L115.843 97.8751C114.394 98.2945 113.581 99.7396 114.027 101.103C114.472 102.466 116.008 103.231 117.456 102.812Z" fill="white"/>
<path d="M148.858 97.0057L162.287 89.076C163.628 88.2842 165.397 88.6654 166.238 89.9275C167.08 91.1895 166.675 92.8545 165.334 93.6463L151.905 101.576C150.564 102.368 148.795 101.987 147.954 100.724C147.112 99.4624 147.517 97.7975 148.858 97.0057Z" fill="white"/>
<path d="M160.27 112.029L148.513 101.747C147.393 100.768 147.329 99.1196 148.369 98.0656L148.369 98.0654C149.41 97.0114 151.161 96.9508 152.281 97.9302L164.039 108.212C165.159 109.191 165.223 110.84 164.183 111.894L164.182 111.894C163.142 112.948 161.39 113.009 160.27 112.029Z" fill="white"/>
<path d="M150.928 113.553C152.274 113.843 153.133 115.116 152.622 116.323C149.737 123.132 141.935 127.138 134.105 125.451C126.276 123.764 121.102 116.962 121.653 109.649C121.75 108.353 123.113 107.559 124.459 107.849L150.928 113.553Z" fill="white"/>
</g>
<defs>
<linearGradient id="paint0_linear_54_92" x1="112.612" y1="75.4965" x2="102.256" y2="5.2995" gradientUnits="userSpaceOnUse">
<stop/>
<stop offset="1" stop-color="white" stop-opacity="0"/>
</linearGradient>
<linearGradient id="paint1_linear_54_92" x1="154.34" y1="157.835" x2="172.253" y2="74.6639" gradientUnits="userSpaceOnUse">
<stop stop-opacity="0.8"/>
<stop offset="1" stop-color="white" stop-opacity="0"/>
</linearGradient>
<clipPath id="clip0_54_92">
<rect width="200" height="200" fill="white"/>
</clipPath>
</defs>
</svg>
