<svg width="200" height="188" viewBox="0 0 200 188" fill="none" xmlns="http://www.w3.org/2000/svg">
<g clip-path="url(#clip0_54_55)">
<path d="M87.9121 187.56C136.464 187.56 175.824 147.949 175.824 99.0892C175.824 50.2291 136.464 10.6187 87.9121 10.6187C39.3604 10.6187 0 50.2291 0 99.0892C0 147.949 39.3604 187.56 87.9121 187.56Z" fill="#6200ED"/>
<path opacity="0.8" d="M87.9121 187.56C136.464 187.56 175.824 147.949 175.824 99.0892C175.824 50.2291 136.464 10.6187 87.9121 10.6187C39.3604 10.6187 0 50.2291 0 99.0892C0 147.949 39.3604 187.56 87.9121 187.56Z" fill="white"/>
<path d="M141.13 16.6039L20.7846 54.7635C19.6736 55.1134 18.6463 55.6679 17.7613 56.3949C16.8765 57.1221 16.1514 58.0075 15.6277 59.0006C15.104 59.9939 14.7919 61.0752 14.7092 62.1831C14.6266 63.2907 14.775 64.403 15.146 65.4563L46.9658 155.855C47.7155 157.982 49.3245 159.74 51.4397 160.742C53.5546 161.745 56.0025 161.91 58.2456 161.201L178.593 123.041C179.703 122.69 180.73 122.135 181.614 121.407C182.498 120.679 183.222 119.793 183.744 118.8C184.267 117.806 184.578 116.725 184.66 115.617C184.742 114.509 184.592 113.398 184.22 112.345L152.368 21.8989C151.611 19.7879 150.005 18.0464 147.899 17.0545C145.794 16.0624 143.36 15.901 141.13 16.6039ZM116.64 28.428C118.022 27.9925 119.509 27.9554 120.913 28.3212C122.317 28.6872 123.576 29.4397 124.529 30.4839C125.483 31.528 126.088 32.817 126.27 34.1877C126.451 35.5583 126.201 36.9493 125.549 38.1848C124.898 39.42 123.875 40.4448 122.609 41.1289C121.344 41.813 119.894 42.1259 118.441 42.0282C116.988 41.9304 115.599 41.4266 114.448 40.5799C113.297 39.7332 112.437 38.5822 111.976 37.2718C111.669 36.4008 111.546 35.4807 111.615 34.5646C111.683 33.6484 111.941 32.754 112.375 31.9326C112.808 31.1111 113.407 30.3788 114.139 29.7774C114.871 29.176 115.721 28.7175 116.64 28.428ZM47.8176 50.2356C49.1996 49.8001 50.6866 49.7629 52.0908 50.129C53.4952 50.4948 54.7536 51.2475 55.707 52.2916C56.6604 53.3358 57.2664 54.6246 57.4479 55.9952C57.6295 57.3659 57.3785 58.7568 56.727 59.9923C56.0754 61.2278 55.0525 62.2523 53.7873 62.9364C52.522 63.6205 51.0714 63.9335 49.6189 63.8357C48.1662 63.7382 46.7767 63.2341 45.6259 62.3875C44.4752 61.541 43.6147 60.3898 43.1534 59.0795C42.8468 58.2083 42.7242 57.2884 42.7925 56.3721C42.8611 55.456 43.1193 54.5616 43.5525 53.7403C43.9857 52.9189 44.5853 52.1866 45.3172 51.5852C46.049 50.9838 46.8987 50.5253 47.8176 50.2356Z" fill="#6A00FF"/>
<path d="M141.13 16.6039L20.7846 54.7635C19.6736 55.1134 18.6463 55.6679 17.7613 56.3949C16.8765 57.1221 16.1514 58.0075 15.6277 59.0008C15.104 59.9939 14.7919 61.0752 14.7092 62.1831C14.6266 63.2907 14.775 64.403 15.146 65.4563L19.5491 78.0065L156.817 34.49L152.411 21.9327C152.039 20.8798 151.453 19.9067 150.685 19.0689C149.917 18.2312 148.983 17.5452 147.935 17.0504C146.887 16.5555 145.747 16.2615 144.579 16.185C143.412 16.1085 142.239 16.2503 141.13 16.6039Z" fill="#5F2AA9"/>
<path d="M141.13 16.604L79.3099 36.1933C88.753 46.2215 96.9424 57.2515 103.714 69.0646C116.19 90.9343 123.65 115.058 125.604 139.857L178.585 123.071C179.695 122.72 180.722 122.164 181.606 121.437C182.49 120.709 183.214 119.823 183.736 118.83C184.259 117.836 184.57 116.754 184.652 115.647C184.734 114.539 184.584 113.427 184.212 112.374L152.36 21.9286C151.609 19.8135 150.006 18.0664 147.901 17.0689C145.796 16.0714 143.361 15.9047 141.127 16.6051L141.13 16.604Z" fill="url(#paint0_linear_54_55)" style="mix-blend-mode:soft-light"/>
<g style="mix-blend-mode:soft-light" opacity="0.4">
<path d="M14.3387 64.1766L46.4354 157.425C46.7297 158.285 47.2105 159.077 47.8501 159.753C48.4897 160.429 49.2756 160.978 50.1631 161.366C51.0503 161.755 52.0218 161.976 53.0213 162.018C54.0211 162.059 55.0294 161.92 55.989 161.609L67.4215 157.907L30.8193 51.5481L19.3804 55.2521C18.4213 55.564 17.5299 56.0424 16.7574 56.6599C15.9848 57.2775 15.3461 58.0219 14.8779 58.8509C14.4097 59.6799 14.1212 60.577 14.0288 61.4909C13.9364 62.4048 14.0412 63.3169 14.3387 64.1766Z" fill="black"/>
</g>
<path d="M87.9472 123.425C92.6332 122.635 95.6811 117.794 94.7206 112.666C94.2842 110.335 92.9956 108.148 91.4558 106.965L93.3514 93.4263L95.4881 93.3013C97.618 92.9423 100.028 89.8279 101.044 88.2142L113.401 93.3013V95.0913C114.361 100.219 118.981 103.768 123.667 102.979C128.353 102.189 131.401 97.3471 130.44 92.2193C130.004 89.8885 127.946 87.0632 126.318 85.4139L128.516 72.5777L131.207 72.8546C135.893 72.0648 138.942 67.2233 137.981 62.0953C137.02 56.9675 132.401 53.4181 127.715 54.2079C123.029 54.9977 119.981 59.8393 120.942 64.9673C121.378 67.298 123.254 70.1211 124.794 71.3042L121.923 84.3319H120.174C118.044 84.6909 115.247 86.6003 114.231 88.2142L102.143 84.0444L102.262 82.5422C101.301 77.4142 96.6813 73.865 91.9954 74.6548C87.3096 75.4444 84.2615 80.2862 85.222 85.4139C85.6587 87.7449 88.2534 90.4362 89.7934 91.6192L87.4903 104.856L84.4547 104.779C79.7688 105.568 76.7209 110.41 77.6813 115.538C78.6417 120.666 83.2613 124.215 87.9472 123.425Z" fill="#F7FAFC"/>
</g>
<defs>
<linearGradient id="paint0_linear_54_55" x1="151.919" y1="131.518" x2="117.847" y2="23.9775" gradientUnits="userSpaceOnUse">
<stop stop-opacity="0.8"/>
<stop offset="1" stop-color="white" stop-opacity="0"/>
</linearGradient>
<clipPath id="clip0_54_55">
<rect width="200" height="188" fill="white"/>
</clipPath>
</defs>
</svg>
