<svg width="444" height="125" viewBox="0 0 444 125" fill="none" xmlns="http://www.w3.org/2000/svg">
<path d="M3.063 87L10.743 42.072C11.703 36.568 13.207 32.184 15.255 28.92C17.367 25.592 19.959 23.096 23.031 21.432C26.167 19.704 29.687 18.552 33.591 17.976C37.559 17.4 41.847 17.112 46.455 17.112C49.335 17.112 52.503 17.304 55.959 17.688C59.479 18.008 62.519 18.456 65.079 19.032L65.271 20.184C65.015 21.336 64.823 22.872 64.695 24.792C64.631 26.712 64.567 28.664 64.503 30.648C64.503 32.632 64.503 34.264 64.503 35.544V87H44.151V40.152C44.151 38.04 44.247 36.12 44.439 34.392C44.631 32.6 44.887 31 45.207 29.592L47.703 34.392C47.063 34.264 46.135 34.168 44.919 34.104C43.767 34.04 42.743 34.008 41.847 34.008C39.415 34.008 37.431 34.328 35.895 34.968C34.423 35.608 33.271 36.568 32.439 37.848C31.607 39.128 31.031 40.792 30.711 42.84L23.415 87H3.063ZM16.503 70.872V54.744H53.751V70.872H16.503ZM77.5905 87V17.88H93.7185L125.591 49.368V75.864L92.0865 42.648L97.9425 40.248V87H77.5905ZM119.447 87V17.88H139.799V87H119.447ZM152.872 17.88H173.224V87H152.872V17.88ZM184.711 66.648H185.863C187.463 67.48 189.447 68.312 191.815 69.144C194.183 69.976 196.743 70.68 199.495 71.256C202.311 71.768 205.063 72.024 207.751 72.024C210.439 72.024 212.615 71.896 214.279 71.64C216.007 71.32 217.255 70.872 218.023 70.296C218.855 69.656 219.271 68.824 219.271 67.8C219.271 66.456 218.759 65.432 217.735 64.728C216.711 64.024 214.663 63.448 211.591 63L206.215 62.232C200.775 61.464 196.295 60.184 192.775 58.392C189.255 56.536 186.631 54.168 184.903 51.288C183.239 48.344 182.407 44.888 182.407 40.92C182.407 36.056 183.527 31.832 185.767 28.248C188.071 24.6 191.719 21.784 196.711 19.8C201.767 17.752 208.391 16.728 216.583 16.728C220.231 16.728 223.687 17.016 226.951 17.592C230.215 18.168 232.903 18.904 235.015 19.8V36.696H233.863C231.751 35.736 229.031 34.872 225.703 34.104C222.439 33.272 218.887 32.856 215.047 32.856C211.975 32.856 209.479 33.112 207.559 33.624C205.639 34.136 204.231 34.904 203.335 35.928C202.439 36.952 201.991 38.232 201.991 39.768C201.991 41.688 202.727 43.096 204.199 43.992C205.671 44.824 208.263 45.528 211.975 46.104L216.967 46.872C220.935 47.448 224.615 48.472 228.007 49.944C231.399 51.416 234.119 53.56 236.167 56.376C238.215 59.128 239.239 62.808 239.239 67.416C239.239 71.32 238.407 74.616 236.743 77.304C235.079 79.992 232.775 82.136 229.831 83.736C226.887 85.272 223.527 86.392 219.751 87.096C215.975 87.8 211.975 88.152 207.751 88.152C204.807 88.152 201.863 87.96 198.919 87.576C195.975 87.192 193.255 86.712 190.759 86.136C188.263 85.56 186.247 84.952 184.711 84.312V66.648ZM263.107 87V58.392L241.219 19.032V17.88H262.339L278.083 48.312L270.691 48.408L284.995 17.88H306.115V19.032L283.459 58.392V87H263.107ZM312.622 87V17.88H328.75L360.622 49.368V75.864L327.118 42.648L332.974 40.248V87H312.622ZM354.478 87V17.88H374.83V87H354.478ZM384.831 52.44C384.831 45.144 386.271 38.84 389.151 33.528C392.095 28.152 396.479 24.024 402.303 21.144C408.191 18.2 415.551 16.728 424.383 16.728C427.647 16.728 430.623 16.984 433.311 17.496C435.999 17.944 438.015 18.456 439.359 19.032V36.12H438.207C436.863 35.416 435.103 34.84 432.927 34.392C430.751 33.88 428.415 33.624 425.919 33.624C420.927 33.624 416.927 34.456 413.919 36.12C410.975 37.72 408.831 39.96 407.487 42.84C406.207 45.656 405.567 48.856 405.567 52.44C405.567 56.024 406.207 59.256 407.487 62.136C408.831 64.952 410.975 67.192 413.919 68.856C416.927 70.456 420.927 71.256 425.919 71.256C428.415 71.256 430.751 71 432.927 70.488C435.103 69.976 436.863 69.4 438.207 68.76H439.359V85.848C438.015 86.424 435.999 86.936 433.311 87.384C430.623 87.896 427.647 88.152 424.383 88.152C415.551 88.152 408.191 86.712 402.303 83.832C396.479 80.888 392.095 76.76 389.151 71.448C386.271 66.072 384.831 59.736 384.831 52.44Z" fill="url(#paint0_linear_53_49)"/>
<defs>
<linearGradient id="paint0_linear_53_49" x1="0" y1="62.5" x2="444" y2="62.5" gradientUnits="userSpaceOnUse">
<stop stop-color="#6A00FF"/>
<stop offset="1" stop-color="#B58FEA"/>
</linearGradient>
</defs>
</svg>
